#!OML:ASF E:\acrobat2\Project_11_07_03\Capture day 1\Session 1\Acrobat.ASF
:FULLY-SPECIFIED
:DEGREES
121
root 3.04357 16.9402 -15.7911 3.73402 -7.09614 2.05848
lowerback -6.02845 1.18609 2.87313
upperback 0.795232 1.43621 -1.63925
thorax 4.32208 0.80309 -3.1757
lowerneck 0.89487 -1.72353 -0.477694
upperneck 3.20854 -2.37099 2.74119
head 0.874642 -1.16581 0.907078
rclavicle 1.48374e-014 7.57867e-015
rhumerus -37.2958 -9.5272 -76.8639
rradius 24.8925
rwrist 10.14
rhand 3.59328 -25.6842
rfingers 7.12502
rthumb 29.0273 -53.4433
lclavicle 1.48374e-014 7.57867e-015
lhumerus -30.3426 -7.72296 84.1536
lradius 23.3128
lwrist 8.72688
lhand -7.81942 -11.7292
lfingers 7.12502
lthumb 18.0826 17.4502
rfemur -9.9341 7.05588 23.1401
rtibia 38.4678
rfoot -47.3684 -20.1867
rtoes 4.29542
lfemur -26.7619 0.399355 -15.4561
ltibia 42.7201
lfoot -18.7622 -9.78015
ltoes 33.5728
122
root 3.0426 16.9401 -15.7912 3.7454 -7.09684 2.05195
lowerback -6.02046 1.19061 2.88588
upperback 0.789952 1.44177 -1.64574
thorax 4.31303 0.806028 -3.18927
lowerneck 0.913843 -1.72311 -0.468405
upperneck 3.23354 -2.37108 2.74586
head 0.879152 -1.16564 0.907068
rclavicle 2.65315e-014 -8.64713e-015
rhumerus -37.3321 -9.52514 -76.9017
rradius 24.9442
rwrist 10.1314
rhand 3.24078 -25.2158
rfingers 7.12502
rthumb 28.6906 -53.0324
lclavicle 2.65315e-014 -8.64713e-015
lhumerus -30.2839 -7.81358 84.1576
lradius 23.2969
lwrist 8.77664
lhand -7.86667 -11.8814
lfingers 7.12502
lthumb 18.0371 17.3022
rfemur -9.94293 7.09617 23.1548
rtibia 38.4589
rfoot -47.4022 -20.1901
rtoes 4.41133
lfemur -26.781 0.391662 -15.4444
ltibia 42.7279
lfoot -18.7829 -9.755
ltoes 33.466
123
root 3.04154 16.9403 -15.7916 3.75722 -7.09798 2.04298
lowerback -6.01249 1.19178 2.8942
upperback 0.779877 1.44287 -1.64504
thorax 4.29832 0.806379 -3.19331
lowerneck 0.954101 -1.71666 -0.474113
upperneck 3.25651 -2.36322 2.75833
head 0.879667 -1.16179 0.912214
rclavicle -2.62846e-015 6.07536e-015
rhumerus -37.372 -9.51004 -76.9359
rradius 24.9903
rwrist 10.127
rhand 3.32293 -25.3231
rfingers 7.12502
rthumb 28.7691 -53.1263
lclavicle -2.62846e-015 6.07536e-015
lhumerus -30.2407 -7.88184 84.167
lradius 23.2856
lwrist 8.82247
lhand -7.92812 -12.0282
lfingers 7.12502
lthumb 17.978 17.1609
rfemur -9.95093 7.12824 23.1725
rtibia 38.4508
rfoot -47.4325 -20.1827
rtoes 4.52176
lfemur -26.7993 0.38093 -15.4294
ltibia 42.7353
lfoot -18.8134 -9.71252
ltoes 33.3094
124
root 3.04041 16.9406 -15.792 3.77019 -7.10083 2.03363
lowerback -6.00554 1.19169 2.8998
upperback 0.764841 1.44236 -1.64102
thorax 4.27874 0.805658 -3.19254
lowerneck 1.00966 -1.70729 -0.48454
upperneck 3.27035 -2.35135 2.77536
head 0.87485 -1.15614 0.919727
rclavicle -1.6715e-014 8.43592e-015
rhumerus -37.413 -9.49946 -76.9635
rradius 25.0179
rwrist 10.1354
rhand 3.7786 -25.9096
rfingers 7.12502
rthumb 29.2043 -53.6381
lclavicle -1.6715e-014 8.43592e-015
lhumerus -30.2232 -7.94145 84.1804
lradius 23.2984
lwrist 8.85465
lhand -7.99568 -12.1149
lfingers 7.12502
lthumb 17.913 17.0801
rfemur -9.9609 7.14705 23.1897
rtibia 38.4463
rfoot -47.4511 -20.1706
rtoes 4.59237
lfemur -26.8146 0.367524 -15.4132
ltibia 42.7399
lfoot -18.8449 -9.66789
ltoes 33.1681
125
root 3.0393 16.9409 -15.7923 3.78249 -7.10939 2.03111
lowerback -5.99914 1.19381 2.90088
upperback 0.746619 1.44524 -1.64033
thorax 4.25638 0.806467 -3.19237
lowerneck 1.0668 -1.69453 -0.501065
upperneck 3.28375 -2.3354 2.80922
head 0.86992 -1.1484 0.93354
rclavicle 3.08869e-014 8.01351e-015
rhumerus -37.4551 -9.50557 -76.9848
rradius 25.0206
rwrist 10.1539
rhand 4.44989 -26.793
rfingers 7.12502
rthumb 29.8451 -54.4082
lclavicle 3.08869e-014 8.01351e-015
lhumerus -30.2293 -8.00847 84.194
lradius 23.3397
lwrist 8.87147
lhand -8.06133 -12.1249
lfingers 7.12502
lthumb 17.8498 17.0759
rfemur -9.97468 7.15705 23.1971
rtibia 38.4465
rfoot -47.4534 -20.1684
rtoes 4.58975
lfemur -26.824 0.353841 -15.4047
ltibia 42.7406
lfoot -18.8704 -9.63632
ltoes 33.1051
126
root 3.03826 16.9412 -15.7924 3.79218 -7.12577 2.03625
lowerback -5.99305 1.20121 2.89924
upperback 0.730244 1.45566 -1.64644
thorax 4.23684 0.811116 -3.19699
lowerneck 1.12306 -1.68583 -0.515667
upperneck 3.27717 -2.32473 2.85556
head 0.859206 -1.14334 0.950914
rclavicle 9.92914e-015 1.49089e-016
rhumerus -37.4949 -9.53231 -77.0028
rradius 25
rwrist 10.1794
rhand 4.92143 -27.4531
rfingers 7.12502
rthumb 30.295 -54.9865
lclavicle 9.92914e-015 1.49089e-016
lhumerus -30.2415 -8.09396 84.2046
lradius 23.3958
lwrist 8.87612
lhand -8.12676 -12.0841
lfingers 7.12502
lthumb 17.7869 17.1225
rfemur -9.98957 7.16332 23.1933
rtibia 38.4502
rfoot -47.4427 -20.176
rtoes 4.54449
lfemur -26.8266 0.346389 -15.4053
ltibia 42.7388
lfoot -18.8866 -9.62523
ltoes 33.1287
127
root 3.0373 16.9413 -15.7924 3.7992 -7.14793 2.03974
lowerback -5.98775 1.21168 2.90156
upperback 0.716015 1.46992 -1.65429
thorax 4.22045 0.817876 -3.20524
lowerneck 1.17541 -1.66817 -0.539674
upperneck 3.27214 -2.30277 2.92435
head 0.849903 -1.13252 0.976911
rclavicle -3.75594e-015 -9.36773e-015
rhumerus -37.5312 -9.56841 -77.0171
rradius 24.9576
rwrist 10.2117
rhand 4.99536 -27.6663
rfingers 7.12502
rthumb 30.3655 -55.1867
lclavicle -3.75594e-015 -9.36773e-015
lhumerus -30.2579 -8.18762 84.2113
lradius 23.4574
lwrist 8.87721
lhand -8.17374 -12.0114
lfingers 7.12502
lthumb 17.7417 17.1992
rfemur -10.0013 7.1686 23.19
rtibia 38.4546
rfoot -47.4266 -20.1888
rtoes 4.49685
lfemur -26.8245 0.353551 -15.4052
ltibia 42.7369
lfoot -18.8883 -9.63694
ltoes 33.209
